<svg width="125" height="127" viewBox="0 0 125 127" fill="none" xmlns="http://www.w3.org/2000/svg">
<path d="M105.615 63.6586C105.615 87.5682 86.3026 106.941 62.4909 106.941C38.6791 106.941 19.3665 87.5682 19.3665 63.6586C19.3665 39.7491 38.6791 20.376 62.4909 20.376C86.3026 20.376 105.615 39.7491 105.615 63.6586Z" fill="#EEF866" stroke="black" stroke-width="3.12066"/>
<path d="M47.5506 64.4668C50.5038 64.4668 52.8979 59.4356 52.8979 53.2293C52.8979 47.023 50.5038 41.9919 47.5506 41.9919C44.5974 41.9919 42.2034 47.023 42.2034 53.2293C42.2034 59.4356 44.5974 64.4668 47.5506 64.4668Z" fill="black"/>
<path d="M77.4315 64.4668C80.3847 64.4668 82.7787 59.4356 82.7787 53.2293C82.7787 47.023 80.3847 41.9919 77.4315 41.9919C74.4783 41.9919 72.0842 47.023 72.0842 53.2293C72.0842 59.4356 74.4783 64.4668 77.4315 64.4668Z" fill="black"/>
<path d="M92.2652 77.0592C88.1674 75.5141 84.5256 71.8535 82.9859 67.7471L79.658 69.001C80.3627 70.8789 81.4286 72.6795 82.7432 74.3018C71.2492 84.6479 53.7271 84.6479 42.2332 74.3018C43.5478 72.6854 44.6137 70.8848 45.3184 69.007L41.9904 67.7531C40.4508 71.8654 36.803 75.5201 32.7112 77.0652L33.9606 80.4049C36.0332 79.6205 38.0111 78.3904 39.752 76.869C46.1888 82.7106 54.337 85.6344 62.4852 85.6344C70.6334 85.6344 78.7816 82.7106 85.2184 76.869C86.9594 78.3904 88.9372 79.6205 91.0098 80.4049L92.2592 77.0652L92.2652 77.0592Z" fill="black"/>
<path d="M65.1261 11.5538L63.8884 0.987835L65.7241 1.11857L66.4466 8.4161L68.1106 1.29091L70.0233 1.42759L67.3111 11.7142L65.132 11.5597L65.1261 11.5538Z" fill="black"/>
<path d="M74.7195 13.0989C73.9792 12.9206 73.4226 12.6413 73.0555 12.2669C72.6883 11.8925 72.4692 11.4349 72.3982 10.8942C72.3271 10.3534 72.3804 9.73536 72.5462 9.04007L73.4581 5.25463C73.6239 4.55934 73.8608 3.98885 74.1687 3.54316C74.4767 3.09746 74.8734 2.79439 75.3708 2.63988C75.8682 2.48537 76.4841 2.49726 77.2243 2.68148C77.9764 2.8657 78.533 3.13906 78.912 3.5075C79.285 3.87594 79.5101 4.32758 79.5752 4.86242C79.6463 5.39725 79.5989 6.00934 79.4272 6.70463L78.5152 10.4901C78.3494 11.1854 78.1126 11.7558 77.8046 12.2075C77.4967 12.6591 77.094 12.9681 76.5907 13.1286C76.0873 13.289 75.4656 13.2772 74.7135 13.0989H74.7195ZM75.0807 11.6073C75.3471 11.6726 75.5544 11.6608 75.7143 11.5657C75.8683 11.4765 75.9926 11.3339 76.0814 11.1378C76.1703 10.9417 76.2472 10.7278 76.3005 10.496L77.4612 5.69438C77.5204 5.46262 77.55 5.2368 77.5559 5.02881C77.5618 4.82082 77.5204 4.6366 77.4197 4.48803C77.325 4.33947 77.1414 4.22656 76.8749 4.16119C76.6262 4.10176 76.4249 4.11365 76.2709 4.20873C76.117 4.30381 75.9926 4.44049 75.9038 4.63065C75.815 4.82082 75.738 5.03475 75.6847 5.26651L74.524 10.0681C74.4648 10.2999 74.4352 10.5257 74.4234 10.7397C74.4115 10.9536 74.453 11.1378 74.5477 11.2864C74.6425 11.4409 74.8201 11.5479 75.0807 11.6073Z" fill="black"/>
<path d="M81.5352 15.0956L84.9342 6.91262L83.4538 6.29459L84.0637 4.8327L88.9787 6.88885L88.3687 8.35073L86.912 7.73864L83.513 15.9216L81.5411 15.0956H81.5352Z" fill="black"/>
<path d="M87.2197 17.7163L92.5255 8.72512L96.4279 11.0487L95.6818 12.3145L93.6033 11.0784L92.1939 13.4673L93.7987 14.4181L93.0466 15.6958L91.4419 14.745L89.7779 17.5677L91.8801 18.8157L91.1458 20.0577L87.2197 17.7222V17.7163Z" fill="black"/>
<path d="M93.4319 21.6325L100.076 13.5862L102.036 15.2144C102.717 15.779 103.173 16.3079 103.41 16.8011C103.647 17.2944 103.688 17.7935 103.534 18.2987C103.386 18.8038 103.066 19.3505 102.587 19.9329L100.165 22.8626C99.6733 23.4568 99.1877 23.8847 98.714 24.1343C98.2403 24.3898 97.7369 24.4493 97.2158 24.3185C96.6947 24.1878 96.0966 23.8491 95.4334 23.2964L93.4319 21.6325ZM96.0078 21.8464L96.3572 22.1316C96.6592 22.3812 96.9138 22.5179 97.127 22.5239C97.3343 22.5357 97.5356 22.4585 97.7192 22.298C97.9027 22.1376 98.1159 21.9177 98.3469 21.6384L101.089 18.3224C101.32 18.0431 101.479 17.8054 101.58 17.5974C101.681 17.3894 101.693 17.1993 101.627 17.0091C101.562 16.8249 101.385 16.611 101.094 16.3673L100.757 16.088L96.0078 21.8405V21.8464Z" fill="black"/>
<path d="M103.262 31.1585L111.742 25.0911L113.66 27.789C114.021 28.3001 114.223 28.7874 114.258 29.245C114.294 29.7025 114.187 30.1423 113.938 30.5583C113.69 30.9743 113.305 31.3665 112.79 31.7408C112.18 32.1747 111.635 32.4124 111.143 32.448C110.652 32.4837 110.214 32.3767 109.817 32.1212C109.42 31.8656 109.059 31.5091 108.727 31.0456L108.165 30.2552L104.493 32.8878L103.262 31.1525V31.1585ZM109.379 29.3935L109.811 30.0056C109.989 30.2552 110.166 30.4216 110.344 30.5048C110.522 30.582 110.717 30.588 110.924 30.5048C111.132 30.4275 111.374 30.2909 111.647 30.1007C111.907 29.9165 112.109 29.7441 112.257 29.5777C112.405 29.4173 112.482 29.2331 112.482 29.031C112.482 28.829 112.387 28.5853 112.18 28.2941L111.753 27.6939L109.379 29.3935Z" fill="black"/>
<path d="M108.105 38.5035L117.414 33.8148L119.451 37.8855L118.143 38.5451L117.059 36.3761L114.59 37.6181L115.425 39.288L114.104 39.9535L113.269 38.2837L110.35 39.7515L111.445 41.9443L110.16 42.5921L108.111 38.4976L108.105 38.5035Z" fill="black"/>
<path d="M111.967 47.9879C111.736 47.257 111.688 46.639 111.813 46.1279C111.937 45.6168 112.215 45.1949 112.648 44.8562C113.074 44.5175 113.631 44.2382 114.306 44.0242L118.007 42.8476C118.688 42.6337 119.292 42.5386 119.836 42.5742C120.375 42.6039 120.843 42.7941 121.228 43.1388C121.613 43.4835 121.927 44.0242 122.152 44.7552C122.383 45.4921 122.442 46.116 122.318 46.633C122.193 47.1441 121.927 47.572 121.506 47.9048C121.086 48.2435 120.535 48.5168 119.86 48.7308L116.159 49.9074C115.478 50.1213 114.868 50.2164 114.323 50.1867C113.779 50.157 113.311 49.9668 112.914 49.6222C112.517 49.2775 112.203 48.7308 111.967 47.9939V47.9879ZM113.423 47.5244C113.506 47.7859 113.625 47.9582 113.784 48.0474C113.944 48.1306 114.128 48.1662 114.341 48.1425C114.554 48.1187 114.773 48.0711 115.004 47.9998L119.7 46.5082C119.931 46.4369 120.132 46.3478 120.316 46.2468C120.5 46.1457 120.63 46.0091 120.713 45.8486C120.79 45.6882 120.79 45.4742 120.713 45.2127C120.636 44.9691 120.517 44.8027 120.363 44.7136C120.204 44.6304 120.02 44.5947 119.813 44.6185C119.605 44.6423 119.386 44.6839 119.155 44.7611L114.46 46.2527C114.229 46.324 114.021 46.4132 113.832 46.5142C113.642 46.6152 113.512 46.7459 113.429 46.9064C113.352 47.0668 113.352 47.2748 113.429 47.5304L113.423 47.5244Z" fill="black"/>
<path d="M113.701 54.0554L124.023 52.6826L124.455 55.9689C124.538 56.5928 124.485 57.1158 124.307 57.5377C124.124 57.9596 123.827 58.2984 123.407 58.548C122.992 58.7976 122.465 58.9639 121.838 59.0471C121.098 59.1482 120.505 59.0947 120.055 58.8986C119.605 58.7025 119.268 58.3994 119.031 57.9834C118.794 57.5674 118.646 57.0861 118.575 56.5215L118.451 55.5648L113.98 56.159L113.701 54.0494V54.0554ZM119.931 55.3746L120.032 56.1174C120.073 56.4264 120.15 56.6523 120.274 56.8068C120.393 56.9613 120.565 57.0504 120.784 57.0861C121.003 57.1217 121.281 57.1099 121.613 57.0683C121.927 57.0267 122.187 56.9672 122.394 56.89C122.602 56.8127 122.75 56.6879 122.85 56.5096C122.951 56.3314 122.975 56.0699 122.927 55.7193L122.833 54.9883L119.937 55.3746H119.931Z" fill="black"/>
<path d="M114.548 62.7969L124.959 63.0109L124.917 65.1383L115.946 64.9541L115.898 67.4025L114.459 67.3727L114.554 62.791L114.548 62.7969Z" fill="black"/>
<path d="M114.187 69.9816L124.473 71.6277L123.756 76.1262L122.312 75.8945L122.691 73.4996L119.961 73.0598L119.665 74.908L118.202 74.6762L118.498 72.8281L115.271 72.3111L114.886 74.7297L113.465 74.5039L114.181 69.9816H114.187Z" fill="black"/>
<path d="M119.327 79.044H119.978C119.901 79.3591 119.955 79.5909 120.144 79.7395C120.334 79.8881 120.594 80.013 120.944 80.1081L121.169 79.2996L122.868 79.7693L122.4 81.4753C122.158 81.4099 121.932 81.3445 121.707 81.2791C121.488 81.2138 121.275 81.1484 121.068 81.083C120.375 80.8749 119.884 80.6193 119.576 80.3221C119.274 80.0249 119.191 79.5969 119.333 79.05L119.327 79.044Z" fill="black"/>
<path d="M110.433 83.6496C110.676 83.0553 110.989 82.5977 111.368 82.2887C111.747 81.9797 112.203 81.8133 112.724 81.7955C113.245 81.7717 113.855 81.8846 114.554 82.1342L114.146 83.9467C113.743 83.7981 113.394 83.703 113.103 83.6614C112.807 83.6198 112.57 83.6436 112.381 83.7268C112.191 83.81 112.055 83.9586 111.972 84.1666C111.872 84.4221 111.878 84.6241 111.996 84.7846C112.12 84.9391 112.28 85.0639 112.488 85.1471C112.89 85.3135 113.269 85.3551 113.624 85.2719C113.98 85.1887 114.359 85.0461 114.767 84.844L116.046 84.1963C116.496 83.9645 116.952 83.81 117.426 83.7387C117.9 83.6674 118.415 83.7446 118.972 83.9764C119.765 84.3032 120.28 84.7846 120.511 85.4264C120.742 86.0682 120.695 86.7932 120.363 87.6073C120.168 88.0946 119.925 88.4571 119.641 88.7008C119.357 88.9444 119.043 89.0989 118.711 89.1643C118.374 89.2237 118.036 89.2237 117.699 89.1643C117.355 89.1049 117.029 89.0157 116.716 88.9028L117.154 87.1141C117.456 87.2211 117.722 87.2983 117.959 87.3518C118.196 87.4053 118.397 87.4053 118.569 87.3518C118.741 87.2983 118.871 87.1616 118.954 86.9477C119.049 86.7159 119.031 86.508 118.907 86.3297C118.782 86.1455 118.616 86.0147 118.409 85.9315C118.066 85.7889 117.758 85.7532 117.474 85.8186C117.189 85.884 116.875 86.0028 116.526 86.1752L115.271 86.8051C114.756 87.0666 114.217 87.2508 113.648 87.3578C113.08 87.4647 112.47 87.3815 111.812 87.1141C111.362 86.9299 110.995 86.6565 110.711 86.3C110.433 85.9434 110.261 85.5393 110.208 85.0817C110.154 84.6241 110.225 84.1487 110.433 83.6496Z" fill="black"/>
<path d="M105.891 92.5754L114.347 98.6784L111.783 102.262L110.616 101.418L111.943 99.5639L109.657 97.9118L108.532 99.4807L107.33 98.6131L108.455 97.0442L104.653 94.3047L105.891 92.5754Z" fill="black"/>
<path d="M102.196 97.5969L108.301 106.303L106.672 108.002L97.7781 102.208L99.1401 100.788L101.047 102.113L102.19 100.925L100.816 99.0469L102.196 97.6028V97.5969ZM102.989 101.959L102.125 102.862L105.589 105.334L102.989 101.965V101.959Z" fill="black"/>
<path d="M94.8057 104.645L102.681 111.764L101.219 112.881L95.8834 107.878L99.318 114.331L97.7902 115.496L93.0647 105.97L94.8057 104.645Z" fill="black"/>
<path d="M86.5624 109.845C87.2375 109.488 87.8356 109.328 88.3567 109.363C88.8778 109.399 89.3456 109.601 89.7483 109.963C90.1569 110.326 90.524 110.825 90.8556 111.455L92.6558 114.908C92.9874 115.538 93.1828 116.126 93.248 116.667C93.3131 117.207 93.2065 117.695 92.9341 118.14C92.6617 118.586 92.188 118.984 91.5129 119.341C90.8319 119.697 90.2279 119.864 89.7009 119.834C89.1739 119.804 88.712 119.608 88.3093 119.258C87.9066 118.901 87.5395 118.408 87.2079 117.778L85.4077 114.325C85.0761 113.695 84.8807 113.107 84.8155 112.56C84.7504 112.014 84.8511 111.52 85.1235 111.063C85.3959 110.611 85.8696 110.201 86.5565 109.845H86.5624ZM87.273 111.205C87.0302 111.33 86.8822 111.485 86.823 111.651C86.7638 111.818 86.7697 112.008 86.823 112.216C86.8822 112.424 86.9651 112.632 87.0776 112.846L89.3634 117.219C89.4759 117.433 89.5943 117.623 89.7305 117.784C89.8667 117.944 90.0147 118.051 90.1865 118.105C90.3582 118.152 90.5655 118.117 90.8082 117.986C91.0333 117.867 91.1754 117.719 91.2346 117.552C91.2938 117.386 91.2879 117.196 91.2346 116.994C91.1754 116.792 91.0925 116.584 90.98 116.37L88.6942 111.996C88.5817 111.782 88.4633 111.592 88.3271 111.425C88.1968 111.259 88.0428 111.146 87.8711 111.098C87.6994 111.051 87.498 111.087 87.2612 111.211L87.273 111.205Z" fill="black"/>
<path d="M80.9014 112.644L84.0162 122.615L81.4403 123.423C80.7712 123.631 80.1731 123.738 79.6461 123.738C79.119 123.738 78.669 123.584 78.29 123.281C77.911 122.978 77.6149 122.485 77.4018 121.801C77.2715 121.391 77.1945 121.017 77.1649 120.678C77.1353 120.339 77.1708 120.024 77.2774 119.739C77.384 119.454 77.5676 119.186 77.8459 118.943L74.9502 114.51L77.0228 113.856L79.575 118.016L80.2856 117.79L78.8762 113.273L80.9014 112.638V112.644ZM80.6646 119.008L80.0783 119.192C79.7526 119.293 79.5099 119.43 79.3559 119.596C79.2019 119.763 79.119 119.965 79.1072 120.209C79.0953 120.452 79.1427 120.731 79.2434 121.052C79.3855 121.51 79.5809 121.837 79.8237 122.027C80.0665 122.217 80.4159 122.241 80.8778 122.092L81.5647 121.878L80.6705 119.008H80.6646Z" fill="black"/>
<path d="M72.108 115.038L73.8135 125.349L71.735 125.694L70.0295 115.383L72.108 115.038Z" fill="black"/>
<path d="M65.9847 115.817L66.3933 124.671L67.9981 124.594L68.0691 126.181L62.7515 126.43L62.6804 124.844L64.2615 124.772L63.8529 115.918L65.9847 115.817Z" fill="black"/>
<path d="M59.7374 115.888L58.7899 126.294L54.2717 125.878L54.402 124.416L56.8121 124.636L57.0608 121.872L55.2014 121.7L55.3376 120.22L57.1911 120.393L57.4872 117.13L55.0534 116.91L55.1837 115.472L59.7315 115.888H59.7374Z" fill="black"/>
<path d="M48.0008 113.951L44.5544 123.81L42.0673 122.936C41.641 122.788 41.2561 122.609 40.9185 122.407C40.581 122.205 40.3027 121.962 40.0895 121.676C39.8763 121.391 39.752 121.058 39.7164 120.678C39.6809 120.298 39.7579 119.84 39.9415 119.317C40.0777 118.919 40.2553 118.598 40.4685 118.36C40.6817 118.123 40.9185 117.956 41.185 117.867C41.4515 117.778 41.7476 117.76 42.0733 117.814C41.712 117.623 41.4396 117.38 41.2502 117.089C41.0607 116.797 40.96 116.459 40.9481 116.078C40.9363 115.698 41.0133 115.276 41.1732 114.807C41.3449 114.313 41.5581 113.903 41.8127 113.582C42.0673 113.262 42.3575 113.024 42.6773 112.875C43.003 112.727 43.3642 112.655 43.7609 112.661C44.1577 112.667 44.59 112.756 45.0578 112.923L47.9949 113.957L48.0008 113.951ZM43.9445 119.127L43.4471 118.955C43.0977 118.83 42.8194 118.788 42.6062 118.83C42.393 118.871 42.2154 118.978 42.0733 119.163C41.9311 119.347 41.8068 119.585 41.7061 119.888C41.5995 120.185 41.5699 120.446 41.6055 120.666C41.641 120.886 41.7535 121.07 41.9252 121.225C42.1029 121.379 42.3516 121.51 42.6654 121.623L43.0266 121.754L43.9445 119.139V119.127ZM45.5078 114.658L44.9512 114.462C44.4478 114.284 44.0629 114.29 43.7846 114.474C43.5063 114.658 43.2813 115.003 43.1036 115.508C42.9674 115.9 42.9023 116.221 42.9141 116.488C42.9201 116.75 43.0089 116.97 43.1628 117.154C43.3227 117.332 43.5714 117.481 43.903 117.6L44.4242 117.784L45.5137 114.67L45.5078 114.658Z" fill="black"/>
<path d="M36.9627 109.048C37.6496 109.44 38.1174 109.856 38.3661 110.308C38.6148 110.76 38.6859 111.253 38.5911 111.782C38.4905 112.317 38.2655 112.899 37.9042 113.535L34.3986 119.757L32.5748 118.723L36.2284 112.245C36.3528 112.02 36.4653 111.788 36.5541 111.556C36.6429 111.318 36.6666 111.104 36.6252 110.902C36.5837 110.7 36.4475 110.534 36.2047 110.397C35.956 110.255 35.7369 110.225 35.5474 110.29C35.3579 110.362 35.1862 110.492 35.0322 110.694C34.8783 110.896 34.7421 111.104 34.6118 111.33L30.9581 117.808L29.1343 116.774L32.6399 110.552C33.0011 109.916 33.3801 109.417 33.7828 109.06C34.1854 108.704 34.6473 108.513 35.1566 108.49C35.6659 108.466 36.2699 108.656 36.9568 109.042L36.9627 109.048Z" fill="black"/>
<path d="M31.5506 105.792L24.9006 113.832L22.8221 112.103C22.2832 111.651 21.8687 111.205 21.5845 110.76C21.3002 110.314 21.1818 109.851 21.2351 109.369C21.2825 108.888 21.5371 108.371 21.9931 107.818C22.2654 107.485 22.5378 107.218 22.8043 107.01C23.0708 106.802 23.355 106.665 23.6511 106.594C23.9472 106.523 24.2729 106.54 24.6223 106.642L26.76 101.798L28.4299 103.189L26.3336 107.598L26.908 108.074L29.9221 104.431L31.5565 105.792H31.5506ZM26.0968 109.048L25.623 108.65C25.3565 108.43 25.1138 108.3 24.8947 108.258C24.6756 108.216 24.4565 108.258 24.2492 108.383C24.0419 108.507 23.8288 108.698 23.6156 108.953C23.3077 109.322 23.1419 109.66 23.1182 109.969C23.0945 110.278 23.2662 110.587 23.6333 110.89L24.19 111.354L26.1027 109.042L26.0968 109.048Z" fill="black"/>
<path d="M23.0646 97.5434C23.5206 98.0842 23.7693 98.6012 23.8048 99.1122C23.8463 99.6174 23.716 100.117 23.414 100.604C23.112 101.091 22.6856 101.567 22.1408 102.036L19.482 104.3C18.9135 104.781 18.3628 105.132 17.8358 105.346C17.3088 105.56 16.7877 105.59 16.2725 105.435C15.7573 105.281 15.254 104.906 14.7566 104.318C14.2769 103.747 13.9867 103.219 13.8979 102.725C13.8091 102.232 13.8742 101.769 14.0992 101.329C14.3243 100.889 14.6736 100.467 15.1533 100.063L15.6152 99.6708L16.9535 101.258L16.3968 101.733C16.1896 101.911 16.0119 102.084 15.8757 102.244C15.7395 102.404 15.6626 102.577 15.6507 102.749C15.6389 102.921 15.7218 103.112 15.8994 103.326C16.083 103.539 16.2725 103.652 16.4679 103.658C16.6633 103.664 16.8587 103.605 17.0541 103.48C17.2496 103.361 17.445 103.213 17.6404 103.046L21.1578 100.051C21.3829 99.861 21.5605 99.6708 21.7086 99.4807C21.8507 99.2905 21.9277 99.1004 21.9336 98.9102C21.9395 98.72 21.8566 98.5239 21.6849 98.3159C21.5131 98.1139 21.3296 98.001 21.1282 97.9772C20.9269 97.9534 20.7196 98.001 20.5065 98.1079C20.2933 98.2208 20.0683 98.3694 19.8373 98.5655L18.9965 99.2846L19.6538 100.063L18.6708 100.895L16.7758 98.6487L20.8558 95.1782L21.7559 96.242L21.1223 96.9491C21.4539 96.8481 21.7855 96.8362 22.1172 96.9135C22.4488 96.9907 22.7685 97.2047 23.0705 97.5612L23.0646 97.5434Z" fill="black"/>
<path d="M19.0674 92.5457L10.1671 97.9772L7.8103 94.0848L9.05977 93.3182L10.3152 95.3922L12.6779 93.9481L11.7067 92.3495L12.9681 91.577L13.9392 93.1756L16.7283 91.47L15.4611 89.3782L16.6928 88.6295L19.0614 92.5457H19.0674Z" fill="black"/>
<path d="M15.4139 86.1633L5.76758 90.1092L4.74905 87.6014C4.48258 86.9477 4.32862 86.3594 4.28716 85.8305C4.24571 85.3016 4.35822 84.8381 4.63062 84.434C4.90302 84.0299 5.3649 83.6912 6.02813 83.4238C6.42488 83.2633 6.79202 83.1504 7.12363 83.0969C7.45524 83.0375 7.76909 83.0494 8.06517 83.1266C8.36126 83.2039 8.63957 83.3703 8.90013 83.6258L13.0571 80.3633L13.8802 82.3838L9.9601 85.2838L10.2384 85.9791L14.6086 84.1903L15.408 86.1633H15.4139ZM9.07778 86.4545L8.84683 85.8781C8.71656 85.5572 8.56259 85.3313 8.38494 85.1887C8.20729 85.0461 8.00004 84.9807 7.75725 84.9926C7.51446 85.0045 7.24207 85.0699 6.92822 85.2006C6.48409 85.3848 6.17617 85.6047 6.01036 85.8602C5.84456 86.1217 5.85048 86.4723 6.02813 86.918L6.30052 87.5895L9.07185 86.4545H9.07778Z" fill="black"/>
<path d="M11.2925 73.0777L1.01252 74.7356L0.680908 72.6439L10.9609 70.9859L11.2925 73.0777Z" fill="black"/>
<path d="M10.5464 67.8184L0.136198 68.0799L0.100668 66.5943L5.46568 64.134L0.0414515 64.2707L0 62.5176L10.4103 62.2562L10.4458 63.6764L4.74324 66.1426L10.4991 66L10.5464 67.8184Z" fill="black"/>
<path d="M11.2155 54.3822L1.07764 51.9814L1.41517 50.5373L7.23023 49.5271L1.94812 48.2732L2.35079 46.5677L12.4886 48.9685L12.163 50.3472L6.02813 51.2802L11.6359 52.6113L11.2214 54.3822H11.2155Z" fill="black"/>
<path d="M13.5428 45.8605L3.90234 41.9087L5.61962 37.6894L6.97568 38.248L6.06374 40.4943L8.6219 41.5462L9.32657 39.8169L10.6945 40.3755L9.9898 42.1048L13.0098 43.3468L13.9336 41.0767L15.266 41.6234L13.5369 45.8664L13.5428 45.8605Z" fill="black"/>
<path d="M17.001 38.2064L7.479 33.7613L8.43831 32.2341L14.2001 35.039L9.32064 30.8554L10.0845 29.6431L15.947 32.2341L10.9669 28.2169L11.9143 26.7134L19.9974 33.4345L19.0381 34.9617L12.921 32.2816L17.9781 36.6376L16.9951 38.1945L17.001 38.2064Z" fill="black"/>
<path d="M26.7658 25.7388L23.9885 22.6724L18.2563 19.3743L19.7308 18.0312L23.0233 19.9982L21.3297 16.5753L22.7568 15.2739L25.4985 21.2937L28.2758 24.3601L26.7658 25.7388Z" fill="black"/>
<path d="M34.2152 20.0458C33.5757 20.4618 32.9953 20.6757 32.4683 20.6935C31.9472 20.7054 31.4616 20.5509 31.0234 20.23C30.5852 19.9091 30.1707 19.4456 29.7799 18.8454L27.6599 15.5769C27.2691 14.9767 27.0204 14.4122 26.9079 13.8833C26.7954 13.3544 26.8487 12.8552 27.0796 12.3858C27.3106 11.9163 27.7428 11.4765 28.3824 11.0606C29.0278 10.6386 29.6141 10.4188 30.1411 10.4009C30.6681 10.3831 31.1478 10.5317 31.5801 10.8466C32.0183 11.1616 32.4269 11.6192 32.8177 12.2194L34.9376 15.4878C35.3285 16.088 35.5772 16.6526 35.6956 17.1874C35.814 17.7222 35.7548 18.2273 35.5298 18.7028C35.3048 19.1782 34.8666 19.6298 34.2211 20.0517L34.2152 20.0458ZM33.3802 18.7562C33.6112 18.6077 33.7474 18.4413 33.7829 18.2689C33.8244 18.0966 33.8007 17.9064 33.7237 17.7044C33.6467 17.5024 33.5401 17.3062 33.4098 17.1042L30.7214 12.9622C30.5911 12.7601 30.449 12.5819 30.301 12.4333C30.1529 12.2847 29.9931 12.1897 29.8154 12.1599C29.6378 12.1243 29.4364 12.1837 29.2055 12.3323C28.9923 12.4749 28.862 12.6294 28.8206 12.8077C28.7791 12.98 28.7969 13.1702 28.8739 13.3663C28.9508 13.5624 29.0515 13.7644 29.1877 13.9665L31.8761 18.1085C32.0064 18.3105 32.1485 18.4888 32.2907 18.6433C32.4387 18.7978 32.5986 18.8929 32.7762 18.9286C32.9539 18.9642 33.1493 18.9048 33.3743 18.7622L33.3802 18.7562Z" fill="black"/>
<path d="M39.5804 16.7298L35.5359 7.09684L38.023 6.045C38.6684 5.77164 39.2547 5.61119 39.7817 5.56365C40.3028 5.5161 40.7706 5.62307 41.1733 5.89049C41.576 6.15791 41.9194 6.62143 42.1977 7.28106C42.3635 7.67922 42.4761 8.04172 42.5412 8.3745C42.6004 8.70729 42.5945 9.02225 42.5175 9.31938C42.4405 9.61651 42.2806 9.89581 42.026 10.1632L45.3244 14.2993L43.3229 15.1431L40.3916 11.2448L39.7047 11.536L41.5345 15.8978L39.5804 16.7239V16.7298ZM39.2132 10.3772L39.7817 10.1395C40.0956 10.0028 40.3265 9.84827 40.4627 9.66999C40.5989 9.49171 40.664 9.27778 40.6522 9.04007C40.6403 8.79643 40.5693 8.52307 40.439 8.21405C40.2554 7.76835 40.0304 7.46528 39.7699 7.29889C39.5093 7.1325 39.1599 7.14438 38.7158 7.3286L38.0526 7.6079L39.2132 10.3772Z" fill="black"/>
<path d="M48.2496 13.402L45.946 3.21037L48.0127 2.74091L48.9839 7.04336L49.8425 2.32492L51.8499 1.86734L50.9794 6.88291L54.2896 12.0292L52.2052 12.5046L49.6056 8.2913L49.4102 8.94499L50.3103 12.9325L48.2436 13.402H48.2496Z" fill="black"/>
</svg>
